{"accessors":[{"bufferView":0,"componentType":5126,"count":3822,"max":[37.8967399597168,26.7215194702148,10.0],"min":[-56.464672088623,-2.41784286499023,-203.577911376953],"normalized":false,"type":"VEC3"},{"bufferView":1,"componentType":5126,"count":3822,"max":[1.0,1.0,0.998593688011169,1.0],"min":[-1.0,-1.0,-1.0,-1.0],"normalized":false,"type":"VEC4"},{"bufferView":2,"componentType":5126,"count":3822,"max":[1.0,1.0,1.0],"min":[-1.0,-1.0,-1.0],"normalized":false,"type":"VEC3"},{"bufferView":3,"componentType":5126,"count":3822,"max":[1.0,1.0],"min":[0.0,0.0],"normalized":false,"type":"VEC2"},{"bufferView":4,"componentType":5123,"count":3822,"max":[3821.0],"min":[0.0],"normalized":false,"type":"SCALAR"}],"asset":{"generator":"Godot Engine v4.5.1.stable.steam@f62fdbde15035c5576dad93e586201f4d41ef0cb","version":"2.0"},"bufferViews":[{"buffer":0,"byteLength":45864,"byteStride":12,"target":34962},{"buffer":0,"byteLength":61152,"byteOffset":45864,"byteStride":16,"target":34962},{"buffer":0,"byteLength":45864,"byteOffset":107016,"byteStride":12,"target":34962},{"buffer":0,"byteLength":30576,"byteOffset":152880,"byteStride":8,"target":34962},{"buffer":0,"byteLength":7644,"byteOffset":183456,"target":34963}],"buffers":[{"byteLength":191100,"uri":"csg_baked_mesh_instance_3d0.bin"}],"extensionsUsed":["GODOT_single_root"],"materials":[{"extensions":{},"pbrMetallicRoughness":{"baseColorFactor":[0.128426969051361,0.129418611526489,0.195994153618813,1.0],"metallicFactor":0.0,"roughnessFactor":1.0}}],"meshes":[{"primitives":[{"attributes":{"NORMAL":2,"POSITION":0,"TANGENT":1,"TEXCOORD_0":3},"indices":4,"material":0,"mode":4}]}],"nodes":[{"mesh":0,"name":"CSGBakedMeshInstance3D"}],"scene":0,"scenes":[{"nodes":[0]}]}